Coordinates
version=1
nRows=14
nColumns=40
inDegrees=yes

Units are S.I. units (second, meters, Newtons, ...)
If the header above contains a line with 'inDegrees', this indicates whether rotational values are in degrees (yes) or radians (no).

endheader
time	pelvis_tilt	pelvis_list	pelvis_rotation	pelvis_tx	pelvis_ty	pelvis_tz	hip_flexion_r	hip_adduction_r	hip_rotation_r	knee_angle_r	knee_angle_r_beta	ankle_angle_r	subtalar_angle_r	mtp_angle_r	hip_flexion_l	hip_adduction_l	hip_rotation_l	knee_angle_l	knee_angle_l_beta	ankle_angle_l	subtalar_angle_l	mtp_angle_l	lumbar_extension	lumbar_bending	lumbar_rotation	arm_flex_r	arm_add_r	arm_rot_r	elbow_flex_r	pro_sup_r	wrist_flex_r	wrist_dev_r	arm_flex_l	arm_add_l	arm_rot_l	elbow_flex_l	pro_sup_l	wrist_flex_l	wrist_dev_l
      6.50000000	     14.91475973	     -4.55873891	     -5.63545105	     -0.24482699	      0.91323207	     -1.03780918	     51.92362180	      0.28124765	     -4.81361108	     20.86561699	      0.36417372	     -5.28168242	      0.00000000	      0.00000000	     16.67777762	     -3.93940457	    -12.20616771	     72.62548885	      1.26755390	     36.35521398	      0.00000000	      0.00000000	    -19.72143523	     -0.06875845	      3.36245581	     89.87421641	     -7.81732979	     41.60044156	     29.51262126	     85.73689078	      0.00000000	      0.00000000	     89.88921015	    -13.54431444	     47.20039477	     29.85447362	     84.33408235	      0.00000000	      0.00000000
      6.50500000	     14.94805585	     -4.51934513	     -5.63223491	     -0.24467514	      0.91244884	     -1.03781124	     51.94368440	      0.27275576	     -4.76817693	     20.89426926	      0.36467379	     -5.23574517	      0.00000000	      0.00000000	     16.70943026	     -3.83986001	    -12.14223904	     72.77337117	      1.27013493	     36.65160121	      0.00000000	      0.00000000	    -19.78745619	     -0.11977901	      3.36588237	     89.87669097	     -7.83319292	     41.39591956	     29.57449452	     85.71642458	      0.00000000	      0.00000000	     89.88989675	    -13.50384093	     47.07522097	     29.87667532	     84.42561058	      0.00000000	      0.00000000
      6.51000000	     14.91286360	     -4.50786133	     -5.67551371	     -0.24424624	      0.91159959	     -1.03770331	     52.01990222	      0.32226674	     -4.76554289	     20.90777783	      0.36490956	     -5.20444073	      0.00000000	      0.00000000	     16.80084420	     -3.80263771	    -12.11851731	     72.92709456	      1.27281791	     36.61012497	      0.00000000	      0.00000000	    -19.76176420	     -0.14343047	      3.38017203	     89.87672960	     -7.80207206	     41.25927922	     29.59099171	     85.76816617	      0.00000000	      0.00000000	     89.88989601	    -13.47285471	     47.09936415	     29.84258784	     84.39036402	      0.00000000	      0.00000000
      6.51500000	     14.90598150	     -4.49545905	     -5.66034893	     -0.24405055	      0.91062674	     -1.03767915	     52.08192660	      0.32710814	     -4.80373672	     20.92569728	      0.36522232	     -5.19945058	      0.00000000	      0.00000000	     16.90656002	     -3.72638445	    -12.00479206	     73.12792417	      1.27632305	     36.72143369	      0.00000000	      0.00000000	    -19.77934967	     -0.16680961	      3.35740674	     89.87776888	     -7.81889864	     41.15266558	     29.66732026	     85.78905818	      0.00000000	      0.00000000	     89.89105671	    -13.46281842	     46.92508443	     29.87784007	     84.32794871	      0.00000000	      0.00000000
      6.52000000	     14.87287849	     -4.52998192	     -5.62469351	     -0.24372339	      0.90976956	     -1.03770561	     52.14906244	      0.33896259	     -4.95238030	     20.93270467	      0.36534462	     -5.23586397	      0.00000000	      0.00000000	     17.02643275	     -3.71614603	    -11.89679500	     73.32095291	      1.27969204	     36.83379128	      0.00000000	      0.00000000	    -19.77842757	     -0.11364254	      3.31667614	     89.87925641	     -7.79382794	     41.00160817	     29.74014948	     85.82452952	      0.00000000	      0.00000000	     89.89105110	    -13.46631279	     46.95727547	     29.93030366	     84.26636153	      0.00000000	      0.00000000
      6.52500000	     14.85989560	     -4.51312185	     -5.71858465	     -0.24335874	      0.90892347	     -1.03749017	     52.20085133	      0.43990946	     -4.83991087	     20.91790231	      0.36508627	     -5.20393356	      0.00000000	      0.00000000	     17.07752713	     -3.67296873	    -11.91848999	     73.47437412	      1.28236974	     36.99000209	      0.00000000	      0.00000000	    -19.76955657	     -0.15888348	      3.44381522	     89.87991413	     -7.83425167	     40.96423408	     29.78935734	     85.61521637	      0.00000000	      0.00000000	     89.89087797	    -13.41569997	     46.75404559	     29.93678567	     84.65083097	      0.00000000	      0.00000000
      6.53000000	     14.85256388	     -4.47654469	     -5.77805151	     -0.24298422	      0.90808379	     -1.03735534	     52.25881700	      0.49025806	     -4.79254259	     20.95590786	      0.36574959	     -5.18400949	      0.00000000	      0.00000000	     17.13086533	     -3.58049747	    -11.87688510	     73.61702246	      1.28485943	     37.11769314	      0.00000000	      0.00000000	    -19.77572063	     -0.22741694	      3.46810599	     89.88094776	     -7.81662625	     40.79726226	     29.85786900	     85.72440883	      0.00000000	      0.00000000	     89.89154315	    -13.41962983	     46.82834340	     29.97265406	     84.41771596	      0.00000000	      0.00000000
      6.53500000	     14.85328572	     -4.50056520	     -5.74351548	     -0.24273756	      0.90719734	     -1.03733997	     52.29126734	      0.51176868	     -4.84134047	     20.96555147	      0.36591790	     -5.16656386	      0.00000000	      0.00000000	     17.21548504	     -3.54512762	    -11.75217501	     73.82307727	      1.28845576	     37.23849542	      0.00000000	      0.00000000	    -19.80815448	     -0.19048094	      3.42987976	     89.88245083	     -7.78784819	     40.59404595	     29.93783697	     85.78606420	      0.00000000	      0.00000000	     89.89210777	    -13.41914129	     46.66594927	     29.96373728	     84.36727340	      0.00000000	      0.00000000
      6.54000000	     14.85317221	     -4.49592590	     -5.71048839	     -0.24244344	      0.90644530	     -1.03742512	     52.32361982	      0.49583926	     -4.94704887	     20.96961183	      0.36598877	     -5.17020464	      0.00000000	      0.00000000	     17.27867028	     -3.44536593	    -11.61723928	     73.96211776	      1.29088248	     37.37434423	      0.00000000	      0.00000000	    -19.82712861	     -0.18190910	      3.40554188	     89.88362905	     -7.79160846	     40.46236515	     29.97812141	     85.75124867	      0.00000000	      0.00000000	     89.89238842	    -13.39726465	     46.64889323	     29.95015663	     84.24448281	      0.00000000	      0.00000000
      6.54500000	     14.82617209	     -4.48118067	     -5.76956523	     -0.24212608	      0.90561638	     -1.03724649	     52.39229323	      0.56816007	     -4.92661468	     20.97276769	      0.36604385	     -5.20061684	      0.00000000	      0.00000000	     17.36782832	     -3.40053927	    -11.59522730	     74.11752201	      1.29359479	     37.50087015	      0.00000000	      0.00000000	    -19.81822147	     -0.21618348	      3.45536294	     89.88404904	     -7.78516952	     40.34997526	     30.03451382	     85.71388017	      0.00000000	      0.00000000	     89.89285428	    -13.38516972	     46.57277397	     30.02289713	     84.48183217	      0.00000000	      0.00000000
      6.55000000	     14.83100175	     -4.53410967	     -5.77722598	     -0.24185244	      0.90478976	     -1.03728873	     52.40904554	      0.63181958	     -4.97484006	     20.95711434	      0.36577065	     -5.24987444	      0.00000000	      0.00000000	     17.44495294	     -3.36097506	    -11.44528410	     74.31828575	      1.29709878	     37.65348004	      0.00000000	      0.00000000	    -19.85226760	     -0.16288990	      3.48460065	     89.88509208	     -7.81009066	     40.22642740	     30.12471474	     85.68030567	      0.00000000	      0.00000000	     89.89369507	    -13.33881949	     46.50125547	     30.01624464	     84.51175327	      0.00000000	      0.00000000
      6.55500000	     14.81913503	     -4.49640640	     -5.83661165	     -0.24144136	      0.90394761	     -1.03706747	     52.48581900	      0.68185185	     -4.94113121	     21.02048544	      0.36687668	     -5.26646362	      0.00000000	      0.00000000	     17.49338031	     -3.28490661	    -11.42297930	     74.44335643	      1.29928168	     37.79766320	      0.00000000	      0.00000000	    -19.84732689	     -0.22262532	      3.51094844	     89.88571397	     -7.76934569	     40.09982357	     30.16098257	     85.65107838	      0.00000000	      0.00000000	     89.89418453	    -13.35615961	     46.47246609	     30.02668661	     84.54756095	      0.00000000	      0.00000000
      6.56000000	     14.80623337	     -4.51259335	     -5.81156241	     -0.24118315	      0.90314241	     -1.03710043	     52.52930798	      0.70015207	     -4.98830050	     21.02514708	      0.36695804	     -5.26589311	      0.00000000	      0.00000000	     17.60846020	     -3.23626425	    -11.30069143	     74.66028885	      1.30306786	     37.88564694	      0.00000000	      0.00000000	    -19.86428483	     -0.19313681	      3.49869709	     89.88692233	     -7.76842325	     39.94593273	     30.23074107	     85.69822921	      0.00000000	      0.00000000	     89.89461282	    -13.32137712	     46.35080849	     30.02466894	     84.48854297	      0.00000000	      0.00000000
      6.56500000	     14.78807570	     -4.53119028	     -5.73832272	     -0.24102106	      0.90234058	     -1.03727763	     52.55863372	      0.67829097	     -5.04184944	     20.99586576	      0.36644699	     -5.31140865	      0.00000000	      0.00000000	     17.73477867	     -3.14315178	    -11.09853045	     74.82795450	      1.30599418	     37.94785137	      0.00000000	      0.00000000	    -19.88875099	     -0.13962392	      3.43127793	     89.88820940	     -7.76058800	     39.72691130	     30.35280641	     85.69963806	      0.00000000	      0.00000000	     89.89581328	    -13.30771799	     46.30080370	     30.07122447	     84.36880095	      0.00000000	      0.00000000
